<?xml version="1.0" standalone="no"?>
<!DOCTYPE svg PUBLIC "-//W3C//DTD SVG 20010904//EN"
 "http://www.w3.org/TR/2001/REC-SVG-20010904/DTD/svg10.dtd">
<svg version="1.0" xmlns="http://www.w3.org/2000/svg"
 width="782.000000pt" height="782.000000pt" viewBox="0 0 782.000000 782.000000"
 preserveAspectRatio="xMidYMid meet">
<metadata>
Created by potrace 1.14, written by Peter Selinger 2001-2017
</metadata>
<g transform="translate(0.000000,782.000000) scale(0.100000,-0.100000)"
fill="#000000" stroke="none">
<path d="M2818 7745 c-2 -2 -41 -6 -88 -9 -88 -7 -118 -11 -210 -26 -30 -5
-71 -12 -90 -15 -144 -24 -493 -122 -585 -165 -11 -5 -49 -21 -85 -36 -223
-91 -503 -259 -727 -436 -88 -70 -339 -317 -399 -393 -21 -27 -41 -52 -44 -55
-31 -28 -173 -238 -242 -356 -138 -237 -259 -566 -303 -828 -9 -50 -18 -102
-20 -116 -30 -168 -24 -596 10 -756 3 -12 7 -39 10 -60 4 -21 15 -72 26 -113
23 -86 74 -325 84 -391 4 -24 8 -47 10 -50 1 -3 6 -30 9 -61 4 -31 8 -65 10
-75 2 -11 7 -48 11 -84 3 -36 8 -76 10 -90 12 -78 18 -284 16 -495 -8 -608 -6
-680 14 -798 3 -15 7 -37 9 -49 2 -13 7 -41 11 -63 36 -205 136 -487 242 -685
41 -78 127 -221 145 -245 5 -5 36 -48 70 -95 86 -117 103 -136 257 -290 285
-285 594 -484 986 -635 148 -57 363 -119 485 -140 19 -3 42 -8 50 -10 8 -3 35
-7 60 -10 25 -3 55 -7 67 -9 12 -3 50 -7 85 -11 35 -3 81 -8 103 -10 60 -7
404 -8 455 -1 25 3 77 8 115 11 249 22 577 105 839 211 120 49 342 158 367
180 8 8 19 14 23 14 4 0 33 17 64 37 31 21 62 40 67 43 19 9 110 74 175 125
194 150 341 295 513 505 70 85 203 298 278 445 232 456 539 901 864 1255 64
70 363 367 401 399 154 128 255 228 342 336 32 39 60 72 63 75 4 3 41 57 84
120 191 287 314 628 351 975 6 52 6 329 0 380 -38 351 -153 674 -339 951 -214
319 -532 594 -887 766 -156 76 -374 157 -469 173 -19 3 -37 8 -41 10 -21 13
-261 51 -380 60 -143 11 -274 23 -320 30 -14 2 -61 9 -105 15 -67 10 -236 41
-297 56 -10 2 -27 6 -38 8 -182 41 -676 211 -715 247 -5 5 -15 9 -23 9 -8 0
-28 7 -45 15 -34 16 -163 62 -212 75 -16 5 -55 16 -85 25 -30 9 -62 18 -70 20
-29 8 -215 47 -240 50 -110 16 -183 26 -230 31 -55 6 -487 14 -492 9z"/>
</g>
</svg>
