<?xml version="1.0" standalone="no"?>
<!DOCTYPE svg PUBLIC "-//W3C//DTD SVG 20010904//EN"
 "http://www.w3.org/TR/2001/REC-SVG-20010904/DTD/svg10.dtd">
<svg version="1.0" xmlns="http://www.w3.org/2000/svg"
 width="782.000000pt" height="782.000000pt" viewBox="0 0 782.000000 782.000000"
 preserveAspectRatio="xMidYMid meet">
<metadata>
Created by potrace 1.14, written by Peter Selinger 2001-2017
</metadata>
<g transform="translate(0.000000,782.000000) scale(0.100000,-0.100000)"
fill="#000000" stroke="none">
<path d="M2730 7733 c-502 -51 -945 -195 -1351 -439 -695 -417 -1187 -1104
-1328 -1854 -36 -194 -44 -301 -38 -544 6 -252 18 -340 81 -596 49 -200 81
-384 107 -601 22 -193 28 -469 19 -969 -4 -265 10 -400 70 -635 48 -190 93
-312 185 -500 245 -498 649 -905 1172 -1177 741 -387 1638 -443 2451 -152 179
64 482 216 642 322 417 278 741 640 960 1073 332 655 783 1231 1362 1737 493
431 769 1052 745 1677 -20 535 -231 1011 -616 1396 -278 277 -596 466 -981
582 -193 58 -353 86 -630 107 -459 36 -877 139 -1320 325 -316 134 -605 209
-932 244 -89 10 -515 13 -598 4z m2612 -1464 c80 -17 186 -70 254 -127 73 -60
153 -175 184 -263 31 -88 38 -250 16 -339 -43 -174 -164 -325 -317 -398 -46
-22 -106 -45 -134 -51 -37 -8 -1697 -214 -2392 -297 -49 -6 -76 -27 -56 -44
38 -33 835 -630 841 -630 4 0 24 16 43 36 14334 8 362
51 728 95 366 44 681 83 700 87 19 150 399 234 618 204 458 -63
753 -509 630 -952 -60 -215 -246 -423 -446 -498 -122 -46 -289 -66 -393 -47
l-35 6 39 -12 c35 -12 -10 -19 -564 -88 -331 -40 -606 -76 -611 -79 -4 -3 14
-186 41 -405 27 -220 50 -429 50 -465 0 -244 -169 -478 -404 -560 -318 -112
-681 70 -776 390 -20 66 -200 1494 -200 1581 1 259 204 512 462 574  5 36 15 37 23 2 12 -382 309 -805 623 l-38
28 -49 -46 c-293 -270 -731 -273 -1026 -6 -279 251 -326 680 -109 989 106 151
282 269 452 303 126 25 3020 377 3110 378 53 0 121 -4 150 -10z"/>
</g>
</svg>
